<svg width="1024" height="1024" viewBox="0 0 1024 1024" fill="none" xmlns="http://www.w3.org/2000/svg">
<path d="M0 512C0 229.23 229.23 0 512 0C794.77 0 1024 229.23 1024 512C1024 794.77 794.77 1024 512 1024C229.23 1024 0 794.77 0 512Z" fill="#2E3138"/>
<path d="M545.5 236H399.4C365.307 236 348.26 236 335.238 242.637C323.784 248.474 314.471 257.789 308.635 269.246C302 282.271 302 299.321 302 333.422V686.578C302 720.679 302 737.731 308.635 750.755C314.471 762.211 323.784 771.527 335.238 777.363C348.26 784 365.307 784 399.4 784H545.5M545.5 236L728.125 418.667M545.5 236V369.956C545.5 387.006 545.5 395.531 548.818 402.044C551.737 407.772 556.391 412.43 562.119 415.349C568.629 418.667 577.152 418.667 594.2 418.667H728.125M728.125 418.667V477M789 607.727C786.924 607.852 780.955 607.727 778.855 607.727C747.672 607.727 719.228 593.795 697.688 570.889C676.147 593.795 647.703 607.724 616.52 607.724C614.42 607.724 608.457 607.852 606.381 607.727C606.381 607.727 606.375 631.336 606.375 643.892C606.375 711.302 645.177 767.941 697.688 784C750.198 767.941 789 711.302 789 643.892C789 631.336 789 607.727 789 607.727Z" stroke="#4ECDFF" stroke-width="40" stroke-linecap="round" stroke-linejoin="round"/>
</svg>
