<svg width="1024" height="1024" viewBox="0 0 1024 1024" fill="none" xmlns="http://www.w3.org/2000/svg">
<rect width="1024" height="1024" rx="512" fill="#38363A"/>
<path d="M798 777.104C789.298 786.268 779.871 794.949 769.718 803.147C760.049 811.829 749.655 819.545 738.536 826.297C727.9 833.049 716.539 838.354 704.453 842.213C692.367 846.071 679.797 848 666.744 848C644.506 848 622.025 843.901 599.303 835.702C577.065 827.985 553.618 818.822 528.962 808.212C504.79 798.084 479.167 788.197 452.094 778.551C425.504 768.905 396.498 762.153 365.073 758.295L383.203 726.464C406.408 722.124 429.13 720.918 451.369 722.847C474.091 725.259 496.329 728.876 518.084 733.699C540.323 739.004 562.32 744.791 584.075 751.061C606.313 757.33 628.552 762.394 650.79 766.253C673.029 770.111 695.751 771.799 718.956 771.317C742.162 771.317 766.093 767.217 790.748 759.018L798 777.104ZM265 442.881C265 405.262 270.318 370.538 280.954 338.707C291.59 306.394 307.302 278.663 328.09 255.513C348.878 231.881 374.501 213.554 404.958 200.533C435.415 187.511 470.465 181 510.107 181C549.75 181 584.8 187.511 615.257 200.533C645.714 213.554 671.095 231.881 691.4 255.513C712.188 278.663 727.9 306.394 738.536 338.707C749.172 370.538 754.49 405.262 754.49 442.881C754.49 480.499 749.172 515.465 738.536 547.778C727.9 579.608 712.188 607.34 691.4 630.972C671.095 654.121 645.714 672.207 615.257 685.229C584.8 698.251 549.75 704.761 510.107 704.761C470.465 704.761 435.415 698.251 404.958 685.229C374.501 672.207 348.878 654.121 328.09 630.972C307.302 607.34 291.59 579.608 280.954 547.778C270.318 515.465 265 480.499 265 442.881ZM388.279 442.881C388.279 473.747 390.696 502.443 395.531 528.969C400.365 555.012 407.859 577.679 418.011 596.971C428.647 615.78 441.942 630.731 457.895 641.823C474.332 652.433 493.912 657.739 516.634 657.739C537.422 657.739 555.068 652.433 569.571 641.823C584.075 630.731 595.919 615.78 605.105 596.971C614.29 577.679 620.817 555.012 624.684 528.969C629.035 502.443 631.211 473.747 631.211 442.881C631.211 412.014 628.794 383.56 623.959 357.516C619.608 330.991 612.356 308.323 602.204 289.514C592.535 270.223 579.482 255.272 563.045 244.662C547.091 233.569 527.512 228.023 504.306 228.023C482.068 228.023 463.455 233.569 448.468 244.662C433.481 255.272 421.395 270.223 412.21 289.514C403.507 308.323 397.223 330.991 393.355 357.516C389.971 383.56 388.279 412.014 388.279 442.881Z" fill="#E8D3B0"/>
</svg>
