<svg width="1024" height="1024" viewBox="0 0 1024 1024" fill="none" xmlns="http://www.w3.org/2000/svg">
<path d="M0 512C0 229.23 229.23 0 512 0C794.77 0 1024 229.23 1024 512C1024 794.77 794.77 1024 512 1024C229.23 1024 0 794.77 0 512Z" fill="#2E3138"/>
<path d="M768 419.143V721.444C768 761.892 768 782.118 760.775 797.567C754.421 811.155 744.28 822.205 731.808 829.128C717.63 837 699.066 837 661.943 837H410.057C372.933 837 354.372 837 340.193 829.128C327.72 822.205 317.58 811.155 311.225 797.567C304 782.118 304 761.892 304 721.444V302.556C304 262.107 304 241.883 311.225 226.434C317.58 212.844 327.72 201.796 340.193 194.872C354.372 187 372.934 187 410.057 187H536M768 419.143L536 187Z" fill="#4DBFEC"/>
<path d="M768 419H614C563 419 536 400.5 536 348.5V187L768 419Z" fill="#12749A"/>
</svg>
